<svg width="178" height="32" viewBox="0 0 178 32" fill="none" xmlns="http://www.w3.org/2000/svg">
<path d="M60.944 16.752C60.944 22.968 56.856 27.336 50.976 27.336C45.124 27.336 41.092 22.996 41.092 16.752C41.092 10.536 45.152 6.168 51.004 6.168C56.856 6.168 60.944 10.508 60.944 16.752ZM57.164 16.752C57.164 12.384 54.756 9.612 51.004 9.612C47.252 9.612 44.844 12.384 44.844 16.752C44.844 21.12 47.252 23.892 51.004 23.892C54.756 23.892 57.164 21.064 57.164 16.752ZM67.1917 27H63.7757V13.168H66.9397L67.2197 14.96C68.0877 13.56 69.7677 12.748 71.6437 12.748C75.1157 12.748 76.9077 14.904 76.9077 18.488V27H73.4917V19.3C73.4917 16.976 72.3437 15.856 70.5797 15.856C68.4797 15.856 67.1917 17.312 67.1917 19.552V27ZM86.452 27.364C82.336 27.364 79.452 24.368 79.452 20.084C79.452 15.744 82.28 12.748 86.34 12.748C90.484 12.748 93.116 15.52 93.116 19.832V20.868L82.7 20.896C82.952 23.332 84.24 24.564 86.508 24.564C88.384 24.564 89.616 23.836 90.008 22.52H93.172C92.584 25.544 90.064 27.364 86.452 27.364ZM86.368 15.548C84.352 15.548 83.12 16.64 82.784 18.712H89.728C89.728 16.808 88.412 15.548 86.368 15.548ZM97.7078 27H93.9838L101.376 6.532H105.044L112.436 27H108.656L107.004 22.268H99.3598L97.7078 27ZM102.748 12.636L100.424 19.244H105.968L103.616 12.636C103.448 12.104 103.252 11.488 103.196 11.068C103.112 11.46 102.944 12.076 102.748 12.636ZM119.553 27.364C115.549 27.364 113.057 24.424 113.057 20.14C113.057 15.828 115.577 12.748 119.749 12.748C121.681 12.748 123.389 13.56 124.257 14.932V6.168H127.645V27H124.509L124.285 24.844C123.445 26.44 121.653 27.364 119.553 27.364ZM120.309 24.228C122.689 24.228 124.229 22.52 124.229 20.028C124.229 17.536 122.689 15.8 120.309 15.8C117.929 15.8 116.473 17.564 116.473 20.028C116.473 22.492 117.929 24.228 120.309 24.228ZM134.621 27H131.205V13.168H134.341L134.621 14.792C135.321 13.644 136.721 12.748 138.709 12.748C140.809 12.748 142.265 13.784 142.993 15.38C143.693 13.784 145.317 12.748 147.417 12.748C150.777 12.748 152.625 14.764 152.625 17.956V27H149.237V18.852C149.237 16.864 148.173 15.828 146.549 15.828C144.897 15.828 143.637 16.892 143.637 19.16V27H140.221V18.824C140.221 16.892 139.185 15.856 137.561 15.856C135.937 15.856 134.621 16.92 134.621 19.16V27ZM157.687 10.396C156.511 10.396 155.587 9.472 155.587 8.324C155.587 7.176 156.511 6.28 157.687 6.28C158.807 6.28 159.731 7.176 159.731 8.324C159.731 9.472 158.807 10.396 157.687 10.396ZM155.979 27V13.168H159.395V27H155.979ZM166.34 27H162.924V13.168H166.088L166.368 14.96C167.236 13.56 168.916 12.748 170.792 12.748C174.264 12.748 176.056 14.904 176.056 18.488V27H172.64V19.3C172.64 16.976 171.492 15.856 169.728 15.856C167.628 15.856 166.34 17.312 166.34 19.552V27Z" fill="#1C2434"/>
<path d="M0 8.42105C0 3.77023 3.77023 0 8.42105 0H23.5789C28.2298 0 32 3.77023 32 8.42105V23.5789C32 28.2298 28.2298 32 23.5789 32H8.42105C3.77023 32 0 28.2298 0 23.5789V8.42105Z" fill="#3C50E0"/>
<g filter="url(#filter0_d_1040_5616)">
<path d="M8.42126 8.42136C8.42126 7.4912 9.17531 6.73715 10.1055 6.73715V6.73715C11.0356 6.73715 11.7897 7.4912 11.7897 8.42136V23.5793C11.7897 24.5094 11.0356 25.2635 10.1055 25.2635V25.2635C9.17531 25.2635 8.42126 24.5094 8.42126 23.5793V8.42136Z" fill="white"/>
</g>
<g opacity="0.9" filter="url(#filter1_d_1040_5616)">
<path d="M14.7369 15.1578C14.7369 14.2276 15.491 13.4736 16.4211 13.4736V13.4736C17.3513 13.4736 18.1054 14.2276 18.1054 15.1578V23.5788C18.1054 24.509 17.3513 25.263 16.4211 25.263V25.263C15.491 25.263 14.7369 24.509 14.7369 23.5788V15.1578Z" fill="white"/>
</g>
<g opacity="0.7" filter="url(#filter2_d_1040_5616)">
<path d="M21.0522 10.947C21.0522 10.0169 21.8063 9.26282 22.7365 9.26282V9.26282C23.6666 9.26282 24.4207 10.0169 24.4207 10.947V23.5786C24.4207 24.5088 23.6666 25.2628 22.7365 25.2628V25.2628C21.8063 25.2628 21.0522 24.5088 21.0522 23.5786V10.947Z" fill="white"/>
</g>
<defs>
<filter id="filter0_d_1040_5616" x="7.42126" y="6.23715" width="5.36841" height="20.5263" filterUnits="userSpaceOnUse" color-interpolation-filters="sRGB">
<feFlood flood-opacity="0" result="BackgroundImageFix"/>
<feColorMatrix in="SourceAlpha" type="matrix" values="0 0 0 0 0 0 0 0 0 0 0 0 0 0 0 0 0 0 127 0" result="hardAlpha"/>
<feOffset dy="0.5"/>
<feGaussianBlur stdDeviation="0.5"/>
<feComposite in2="hardAlpha" operator="out"/>
<feColorMatrix type="matrix" values="0 0 0 0 0 0 0 0 0 0 0 0 0 0 0 0 0 0 0.12 0"/>
<feBlend mode="normal" in2="BackgroundImageFix" result="effect1_dropShadow_1040_5616"/>
<feBlend mode="normal" in="SourceGraphic" in2="effect1_dropShadow_1040_5616" result="shape"/>
</filter>
<filter id="filter1_d_1040_5616" x="13.7369" y="12.9736" width="5.36841" height="13.7895" filterUnits="userSpaceOnUse" color-interpolation-filters="sRGB">
<feFlood flood-opacity="0" result="BackgroundImageFix"/>
<feColorMatrix in="SourceAlpha" type="matrix" values="0 0 0 0 0 0 0 0 0 0 0 0 0 0 0 0 0 0 127 0" result="hardAlpha"/>
<feOffset dy="0.5"/>
<feGaussianBlur stdDeviation="0.5"/>
<feComposite in2="hardAlpha" operator="out"/>
<feColorMatrix type="matrix" values="0 0 0 0 0 0 0 0 0 0 0 0 0 0 0 0 0 0 0.12 0"/>
<feBlend mode="normal" in2="BackgroundImageFix" result="effect1_dropShadow_1040_5616"/>
<feBlend mode="normal" in="SourceGraphic" in2="effect1_dropShadow_1040_5616" result="shape"/>
</filter>
<filter id="filter2_d_1040_5616" x="20.0522" y="8.76282" width="5.36841" height="18" filterUnits="userSpaceOnUse" color-interpolation-filters="sRGB">
<feFlood flood-opacity="0" result="BackgroundImageFix"/>
<feColorMatrix in="SourceAlpha" type="matrix" values="0 0 0 0 0 0 0 0 0 0 0 0 0 0 0 0 0 0 127 0" result="hardAlpha"/>
<feOffset dy="0.5"/>
<feGaussianBlur stdDeviation="0.5"/>
<feComposite in2="hardAlpha" operator="out"/>
<feColorMatrix type="matrix" values="0 0 0 0 0 0 0 0 0 0 0 0 0 0 0 0 0 0 0.12 0"/>
<feBlend mode="normal" in2="BackgroundImageFix" result="effect1_dropShadow_1040_5616"/>
<feBlend mode="normal" in="SourceGraphic" in2="effect1_dropShadow_1040_5616" result="shape"/>
</filter>
</defs>
</svg>
